<mxfile host="app.diagrams.net" agent="Mozilla/5.0 (Windows NT 10.0; Win64; x64) AppleWebKit/537.36 (KHTML, like Gecko) Chrome/134.0.0.0 Safari/537.36" version="26.2.3">
  <diagram name="페이지-1" id="dG51TPGVk2a9Yzj9FMym">
    <mxGraphModel dx="882" dy="733" grid="1" gridSize="10" guides="1" tooltips="1" connect="1" arrows="1" fold="1" page="1" pageScale="1" pageWidth="827" pageHeight="1169" math="0" shadow="0">
      <root>
        <mxCell id="0" />
        <mxCell id="1" parent="0" />
        <mxCell id="5p1q84RTbeDs5RPF2pkx-20" value="App 내부 처리 과정" style="swimlane;whiteSpace=wrap;html=1;" vertex="1" parent="1">
          <mxGeometry x="60" y="80" width="700" height="700" as="geometry" />
        </mxCell>
        <mxCell id="5p1q84RTbeDs5RPF2pkx-1" value="" style="swimlane;startSize=0;" vertex="1" parent="5p1q84RTbeDs5RPF2pkx-20">
          <mxGeometry x="110" y="200" width="570" height="280" as="geometry">
            <mxRectangle x="120" y="100" width="50" height="40" as="alternateBounds" />
          </mxGeometry>
        </mxCell>
        <mxCell id="5p1q84RTbeDs5RPF2pkx-2" value="셀프 모드" style="text;html=1;align=center;verticalAlign=middle;whiteSpace=wrap;rounded=0;" vertex="1" parent="5p1q84RTbeDs5RPF2pkx-1">
          <mxGeometry x="500" y="240" width="60" height="30" as="geometry" />
        </mxCell>
        <mxCell id="5p1q84RTbeDs5RPF2pkx-4" value="핸들 활성화" style="rounded=1;whiteSpace=wrap;html=1;" vertex="1" parent="5p1q84RTbeDs5RPF2pkx-1">
          <mxGeometry x="40" y="20" width="100" height="50" as="geometry" />
        </mxCell>
        <mxCell id="5p1q84RTbeDs5RPF2pkx-5" value="엑셀 활성화" style="rounded=1;whiteSpace=wrap;html=1;" vertex="1" parent="5p1q84RTbeDs5RPF2pkx-1">
          <mxGeometry x="40" y="170" width="100" height="50" as="geometry" />
        </mxCell>
        <mxCell id="5p1q84RTbeDs5RPF2pkx-7" value="Steering Handle" style="swimlane;whiteSpace=wrap;html=1;" vertex="1" parent="5p1q84RTbeDs5RPF2pkx-1">
          <mxGeometry x="210" y="10" width="250" height="150" as="geometry" />
        </mxCell>
        <mxCell id="5p1q84RTbeDs5RPF2pkx-12" value="- 핸들 회전 방향에 따라 오른쪽 / 왼쪽 회전" style="text;html=1;align=center;verticalAlign=middle;whiteSpace=wrap;rounded=0;" vertex="1" parent="5p1q84RTbeDs5RPF2pkx-7">
          <mxGeometry x="10" y="30" width="230" height="30" as="geometry" />
        </mxCell>
        <mxCell id="5p1q84RTbeDs5RPF2pkx-13" value="오른쪽 회전 &amp;gt; 왼바퀴만 이동" style="text;html=1;align=center;verticalAlign=middle;whiteSpace=wrap;rounded=0;" vertex="1" parent="5p1q84RTbeDs5RPF2pkx-7">
          <mxGeometry x="10" y="60" width="230" height="30" as="geometry" />
        </mxCell>
        <mxCell id="5p1q84RTbeDs5RPF2pkx-14" value="왼쪽 회전 &amp;gt; 오른바퀴만 이동" style="text;html=1;align=center;verticalAlign=middle;whiteSpace=wrap;rounded=0;" vertex="1" parent="5p1q84RTbeDs5RPF2pkx-7">
          <mxGeometry x="10" y="80" width="230" height="30" as="geometry" />
        </mxCell>
        <mxCell id="5p1q84RTbeDs5RPF2pkx-16" value="핸들 회전값 return" style="rounded=0;whiteSpace=wrap;html=1;" vertex="1" parent="5p1q84RTbeDs5RPF2pkx-7">
          <mxGeometry x="40" y="110" width="170" height="30" as="geometry" />
        </mxCell>
        <mxCell id="5p1q84RTbeDs5RPF2pkx-6" value="" style="endArrow=classic;html=1;rounded=0;exitX=1;exitY=0.5;exitDx=0;exitDy=0;" edge="1" parent="5p1q84RTbeDs5RPF2pkx-1" source="5p1q84RTbeDs5RPF2pkx-4">
          <mxGeometry width="50" height="50" relative="1" as="geometry">
            <mxPoint x="290" y="280" as="sourcePoint" />
            <mxPoint x="210" y="45" as="targetPoint" />
          </mxGeometry>
        </mxCell>
        <mxCell id="5p1q84RTbeDs5RPF2pkx-9" value="Accel" style="swimlane;whiteSpace=wrap;html=1;" vertex="1" parent="5p1q84RTbeDs5RPF2pkx-1">
          <mxGeometry x="210" y="170" width="250" height="100" as="geometry" />
        </mxCell>
        <mxCell id="5p1q84RTbeDs5RPF2pkx-11" value="- 버튼 누르는 동안 앞으로 이동" style="text;html=1;align=center;verticalAlign=middle;whiteSpace=wrap;rounded=0;" vertex="1" parent="5p1q84RTbeDs5RPF2pkx-9">
          <mxGeometry x="10" y="30" width="190" height="30" as="geometry" />
        </mxCell>
        <mxCell id="5p1q84RTbeDs5RPF2pkx-17" value="엑셀 활성화 여부 return" style="rounded=0;whiteSpace=wrap;html=1;" vertex="1" parent="5p1q84RTbeDs5RPF2pkx-9">
          <mxGeometry x="40" y="60" width="170" height="30" as="geometry" />
        </mxCell>
        <mxCell id="5p1q84RTbeDs5RPF2pkx-8" value="" style="endArrow=classic;html=1;rounded=0;exitX=1;exitY=0.5;exitDx=0;exitDy=0;" edge="1" parent="5p1q84RTbeDs5RPF2pkx-1" source="5p1q84RTbeDs5RPF2pkx-5">
          <mxGeometry width="50" height="50" relative="1" as="geometry">
            <mxPoint x="280" y="180" as="sourcePoint" />
            <mxPoint x="210" y="195" as="targetPoint" />
          </mxGeometry>
        </mxCell>
        <mxCell id="5p1q84RTbeDs5RPF2pkx-19" value="" style="rounded=0;whiteSpace=wrap;html=1;" vertex="1" parent="5p1q84RTbeDs5RPF2pkx-20">
          <mxGeometry x="110" y="490" width="570" height="120" as="geometry" />
        </mxCell>
        <mxCell id="5p1q84RTbeDs5RPF2pkx-21" value="자율주행 모드" style="text;html=1;align=center;verticalAlign=middle;whiteSpace=wrap;rounded=0;" vertex="1" parent="5p1q84RTbeDs5RPF2pkx-20">
          <mxGeometry x="590" y="570" width="80" height="30" as="geometry" />
        </mxCell>
        <mxCell id="5p1q84RTbeDs5RPF2pkx-23" value="" style="swimlane;startSize=0;" vertex="1" parent="5p1q84RTbeDs5RPF2pkx-20">
          <mxGeometry x="30" y="40" width="270" height="140" as="geometry" />
        </mxCell>
        <mxCell id="5p1q84RTbeDs5RPF2pkx-28" value="블루투스 연결" style="text;html=1;align=center;verticalAlign=middle;whiteSpace=wrap;rounded=0;" vertex="1" parent="5p1q84RTbeDs5RPF2pkx-23">
          <mxGeometry x="160" y="110" width="110" height="30" as="geometry" />
        </mxCell>
        <mxCell id="5p1q84RTbeDs5RPF2pkx-30" value="셀프모드" style="rounded=1;whiteSpace=wrap;html=1;" vertex="1" parent="5p1q84RTbeDs5RPF2pkx-23">
          <mxGeometry x="50" y="30" width="80" height="40" as="geometry" />
        </mxCell>
        <mxCell id="5p1q84RTbeDs5RPF2pkx-32" value="자동모드" style="rounded=1;whiteSpace=wrap;html=1;" vertex="1" parent="5p1q84RTbeDs5RPF2pkx-23">
          <mxGeometry x="150" y="30" width="80" height="40" as="geometry" />
        </mxCell>
        <mxCell id="5p1q84RTbeDs5RPF2pkx-34" value="선택 후 블루투스로 모드값 return" style="rounded=0;whiteSpace=wrap;html=1;" vertex="1" parent="5p1q84RTbeDs5RPF2pkx-23">
          <mxGeometry x="40" y="90" width="200" height="20" as="geometry" />
        </mxCell>
        <mxCell id="5p1q84RTbeDs5RPF2pkx-25" value="" style="endArrow=classic;html=1;rounded=0;entryX=-0.002;entryY=0.543;entryDx=0;entryDy=0;entryPerimeter=0;" edge="1" parent="5p1q84RTbeDs5RPF2pkx-20" target="5p1q84RTbeDs5RPF2pkx-1">
          <mxGeometry width="50" height="50" relative="1" as="geometry">
            <mxPoint x="55" y="180" as="sourcePoint" />
            <mxPoint x="55" y="340" as="targetPoint" />
            <Array as="points">
              <mxPoint x="55" y="352" />
            </Array>
          </mxGeometry>
        </mxCell>
        <mxCell id="5p1q84RTbeDs5RPF2pkx-26" value="" style="endArrow=classic;html=1;rounded=0;entryX=0;entryY=0.5;entryDx=0;entryDy=0;exitX=0.089;exitY=1;exitDx=0;exitDy=0;exitPerimeter=0;" edge="1" parent="5p1q84RTbeDs5RPF2pkx-20" source="5p1q84RTbeDs5RPF2pkx-23" target="5p1q84RTbeDs5RPF2pkx-19">
          <mxGeometry width="50" height="50" relative="1" as="geometry">
            <mxPoint x="50" y="180" as="sourcePoint" />
            <mxPoint x="119" y="362" as="targetPoint" />
            <Array as="points">
              <mxPoint x="54" y="550" />
            </Array>
          </mxGeometry>
        </mxCell>
      </root>
    </mxGraphModel>
  </diagram>
</mxfile>
